<svg viewBox="-1.6 -1.6 103.2 103.2" version="1.1" xmlns="http://www.w3.org/2000/svg" xmlns:xlink="http://www.w3.org/1999/xlink" xml:space="preserve" xmlns:serif="http://www.serif.com/" style="fill-rule:evenodd;clip-rule:evenodd;stroke-linejoin:round;stroke-miterlimit:2;">
    <g transform="matrix(0.502921,0,0,0.502921,-46142.2,-6943.9)">
        <path d="M91819.5,13811.1L91819.5,13819C91819.5,13822.9 91816.4,13826 91812.6,13826L91804.7,13826C91800.8,13826 91797.7,13822.9 91797.7,13819L91797.7,13811.1C91797.7,13807.3 91800.8,13804.2 91804.7,13804.2L91812.6,13804.2C91816.4,13804.2 91819.5,13807.3 91819.5,13811.1Z" style="fill:currentColor;fill-opacity:0.4;"></path>
    </g>
    <g transform="matrix(0.502921,0,0,0.502921,-46129,-6943.9)">
        <path d="M91819.5,13811.1L91819.5,13819C91819.5,13822.9 91816.4,13826 91812.6,13826L91804.7,13826C91800.8,13826 91797.7,13822.9 91797.7,13819L91797.7,13811.1C91797.7,13807.3 91800.8,13804.2 91804.7,13804.2L91812.6,13804.2C91816.4,13804.2 91819.5,13807.3 91819.5,13811.1Z" style="fill:currentColor;fill-opacity:0.4;"></path>
    </g>
    <g transform="matrix(0.502921,0,0,0.502921,-46115.9,-6943.9)">
        <path d="M91819.5,13811.1L91819.5,13819C91819.5,13822.9 91816.4,13826 91812.6,13826L91804.7,13826C91800.8,13826 91797.7,13822.9 91797.7,13819L91797.7,13811.1C91797.7,13807.3 91800.8,13804.2 91804.7,13804.2L91812.6,13804.2C91816.4,13804.2 91819.5,13807.3 91819.5,13811.1Z" style="fill:currentColor;fill-opacity:0.4;"></path>
    </g>
    <g transform="matrix(0.502921,0,0,0.502921,-46102.7,-6943.9)">
        <path d="M91819.5,13811.1L91819.5,13819C91819.5,13822.9 91816.4,13826 91812.6,13826L91804.7,13826C91800.8,13826 91797.7,13822.9 91797.7,13819L91797.7,13811.1C91797.7,13807.3 91800.8,13804.2 91804.7,13804.2L91812.6,13804.2C91816.4,13804.2 91819.5,13807.3 91819.5,13811.1Z" style="fill:currentColor;fill-opacity:0.4;"></path>
    </g>
    <g transform="matrix(3.0795e-17,0.502921,-0.502921,3.0795e-17,6965.02,-46155.3)">
        <path d="M91819.5,13811.1L91819.5,13819C91819.5,13822.9 91816.4,13826 91812.6,13826L91804.7,13826C91800.8,13826 91797.7,13822.9 91797.7,13819L91797.7,13811.1C91797.7,13807.3 91800.8,13804.2 91804.7,13804.2L91812.6,13804.2C91816.4,13804.2 91819.5,13807.3 91819.5,13811.1Z" style="fill:currentColor;fill-opacity:0.4;"></path>
    </g>
    <g transform="matrix(3.0795e-17,0.502921,-0.502921,3.0795e-17,6965.02,-46142.2)">
        <path d="M91819.5,13811.1L91819.5,13819C91819.5,13822.9 91816.4,13826 91812.6,13826L91804.7,13826C91800.8,13826 91797.7,13822.9 91797.7,13819L91797.7,13811.1C91797.7,13807.3 91800.8,13804.2 91804.7,13804.2L91812.6,13804.2C91816.4,13804.2 91819.5,13807.3 91819.5,13811.1Z" style="fill:currentColor;fill-opacity:0.4;"></path>
    </g>
    <g transform="matrix(3.0795e-17,0.502921,-0.502921,3.0795e-17,6965.02,-46129)">
        <path d="M91819.5,13811.1L91819.5,13819C91819.5,13822.9 91816.4,13826 91812.6,13826L91804.7,13826C91800.8,13826 91797.7,13822.9 91797.7,13819L91797.7,13811.1C91797.7,13807.3 91800.8,13804.2 91804.7,13804.2L91812.6,13804.2C91816.4,13804.2 91819.5,13807.3 91819.5,13811.1Z" style="fill:currentColor;fill-opacity:0.4;"></path>
    </g>
    <g transform="matrix(3.0795e-17,0.502921,-0.502921,3.0795e-17,6965.02,-46115.9)">
        <path d="M91819.5,13811.1L91819.5,13819C91819.5,13822.9 91816.4,13826 91812.6,13826L91804.7,13826C91800.8,13826 91797.7,13822.9 91797.7,13819L91797.7,13811.1C91797.7,13807.3 91800.8,13804.2 91804.7,13804.2L91812.6,13804.2C91816.4,13804.2 91819.5,13807.3 91819.5,13811.1Z" style="fill:currentColor;fill-opacity:0.4;"></path>
    </g>
    <g transform="matrix(3.0795e-17,0.502921,-0.502921,3.0795e-17,6965.02,-46102.7)">
        <path d="M91819.5,13811.1L91819.5,13819C91819.5,13822.9 91816.4,13826 91812.6,13826L91804.7,13826C91800.8,13826 91797.7,13822.9 91797.7,13819L91797.7,13811.1C91797.7,13807.3 91800.8,13804.2 91804.7,13804.2L91812.6,13804.2C91816.4,13804.2 91819.5,13807.3 91819.5,13811.1Z" style="fill:currentColor;fill-opacity:0.4;"></path>
    </g>
    <g transform="matrix(3.0795e-17,0.502921,-0.502921,3.0795e-17,6965.02,-46089.6)">
        <path d="M91819.5,13811.1L91819.5,13819C91819.5,13822.9 91816.4,13826 91812.6,13826L91804.7,13826C91800.8,13826 91797.7,13822.9 91797.7,13819L91797.7,13811.1C91797.7,13807.3 91800.8,13804.2 91804.7,13804.2L91812.6,13804.2C91816.4,13804.2 91819.5,13807.3 91819.5,13811.1Z" style="fill:currentColor;fill-opacity:0.4;"></path>
    </g>
    <g transform="matrix(3.0795e-17,0.502921,-0.502921,3.0795e-17,6978.17,-46155.3)">
        <path d="M91819.5,13811.1L91819.5,13819C91819.5,13822.9 91816.4,13826 91812.6,13826L91804.7,13826C91800.8,13826 91797.7,13822.9 91797.7,13819L91797.7,13811.1C91797.7,13807.3 91800.8,13804.2 91804.7,13804.2L91812.6,13804.2C91816.4,13804.2 91819.5,13807.3 91819.5,13811.1Z" style="fill:currentColor;fill-opacity:0.4;"></path>
    </g>
    <g transform="matrix(3.0795e-17,0.502921,-0.502921,3.0795e-17,6978.17,-46142.2)">
        <path d="M91819.5,13811.1L91819.5,13819C91819.5,13822.9 91816.4,13826 91812.6,13826L91804.7,13826C91800.8,13826 91797.7,13822.9 91797.7,13819L91797.7,13811.1C91797.7,13807.3 91800.8,13804.2 91804.7,13804.2L91812.6,13804.2C91816.4,13804.2 91819.5,13807.3 91819.5,13811.1Z" style="fill:currentColor;fill-opacity:0.4;"></path>
    </g>
    <g transform="matrix(3.0795e-17,0.502921,-0.502921,3.0795e-17,6978.17,-46129)">
        <path d="M91819.5,13811.1L91819.5,13819C91819.5,13822.9 91816.4,13826 91812.6,13826L91804.7,13826C91800.8,13826 91797.7,13822.9 91797.7,13819L91797.7,13811.1C91797.7,13807.3 91800.8,13804.2 91804.7,13804.2L91812.6,13804.2C91816.4,13804.2 91819.5,13807.3 91819.5,13811.1Z" style="fill:currentColor;fill-opacity:0.4;"></path>
    </g>
    <g transform="matrix(0.88258,0,0,1.11471,-2631.87,-925.975)">
        <g transform="matrix(3.4892e-17,0.451166,-0.56983,2.7626e-17,10888.6,-40539.5)">
            <path d="M91819.5,13811.1L91819.5,13819C91819.5,13822.9 91816.4,13826 91812.6,13826L91804.7,13826C91800.8,13826 91797.7,13822.9 91797.7,13819L91797.7,13811.1C91797.7,13807.3 91800.8,13804.2 91804.7,13804.2L91812.6,13804.2C91816.4,13804.2 91819.5,13807.3 91819.5,13811.1Z" style="fill:currentColor;"></path>
        </g>
        <g transform="matrix(3.4892e-17,0.451166,-0.56983,2.7626e-17,10903.5,-40527.7)">
            <path d="M91819.5,13811.1L91819.5,13819C91819.5,13822.9 91816.4,13826 91812.6,13826L91804.7,13826C91800.8,13826 91797.7,13822.9 91797.7,13819L91797.7,13811.1C91797.7,13807.3 91800.8,13804.2 91804.7,13804.2L91812.6,13804.2C91816.4,13804.2 91819.5,13807.3 91819.5,13811.1Z" style="fill:currentColor;"></path>
        </g>
        <g transform="matrix(3.4892e-17,0.451166,-0.56983,2.7626e-17,10918.4,-40551.3)">
            <path d="M91819.5,13811.1L91819.5,13819C91819.5,13822.9 91816.4,13826 91812.6,13826L91804.7,13826C91800.8,13826 91797.7,13822.9 91797.7,13819L91797.7,13811.1C91797.7,13807.3 91800.8,13804.2 91804.7,13804.2L91812.6,13804.2C91816.4,13804.2 91819.5,13807.3 91819.5,13811.1Z" style="fill:currentColor;"></path>
        </g>
        <g transform="matrix(3.4892e-17,0.451166,-0.56983,2.7626e-17,10918.4,-40539.5)">
            <path d="M91819.5,13811.1L91819.5,13819C91819.5,13822.9 91816.4,13826 91812.6,13826L91804.7,13826C91800.8,13826 91797.7,13822.9 91797.7,13819L91797.7,13811.1C91797.7,13807.3 91800.8,13804.2 91804.7,13804.2L91812.6,13804.2C91816.4,13804.2 91819.5,13807.3 91819.5,13811.1Z" style="fill:currentColor;"></path>
        </g>
        <g transform="matrix(3.4892e-17,0.451166,-0.56983,2.7626e-17,10933.3,-40563.1)">
            <path d="M91819.5,13811.1L91819.5,13819C91819.5,13822.9 91816.4,13826 91812.6,13826L91804.7,13826C91800.8,13826 91797.7,13822.9 91797.7,13819L91797.7,13811.1C91797.7,13807.3 91800.8,13804.2 91804.7,13804.2L91812.6,13804.2C91816.4,13804.2 91819.5,13807.3 91819.5,13811.1Z" style="fill:currentColor;"></path>
        </g>
    </g>
    <g transform="matrix(3.0795e-17,0.502921,-0.502921,3.0795e-17,6978.17,-46102.7)">
        <path d="M91819.5,13811.1L91819.5,13819C91819.5,13822.9 91816.4,13826 91812.6,13826L91804.7,13826C91800.8,13826 91797.7,13822.9 91797.7,13819L91797.7,13811.1C91797.7,13807.3 91800.8,13804.2 91804.7,13804.2L91812.6,13804.2C91816.4,13804.2 91819.5,13807.3 91819.5,13811.1Z" style="fill:currentColor;fill-opacity:0.4;"></path>
    </g>
    <g transform="matrix(3.0795e-17,0.502921,-0.502921,3.0795e-17,6978.17,-46089.6)">
        <path d="M91819.5,13811.1L91819.5,13819C91819.5,13822.9 91816.4,13826 91812.6,13826L91804.7,13826C91800.8,13826 91797.7,13822.9 91797.7,13819L91797.7,13811.1C91797.7,13807.3 91800.8,13804.2 91804.7,13804.2L91812.6,13804.2C91816.4,13804.2 91819.5,13807.3 91819.5,13811.1Z" style="fill:currentColor;fill-opacity:0.4;"></path>
    </g>
    <g transform="matrix(3.0795e-17,0.502921,-0.502921,3.0795e-17,6991.32,-46155.3)">
        <path d="M91819.5,13811.1L91819.5,13819C91819.5,13822.9 91816.4,13826 91812.6,13826L91804.7,13826C91800.8,13826 91797.7,13822.9 91797.7,13819L91797.7,13811.1C91797.7,13807.3 91800.8,13804.2 91804.7,13804.2L91812.6,13804.2C91816.4,13804.2 91819.5,13807.3 91819.5,13811.1Z" style="fill:currentColor;fill-opacity:0.4;"></path>
    </g>
    <g transform="matrix(3.0795e-17,0.502921,-0.502921,3.0795e-17,6991.32,-46142.2)">
        <path d="M91819.5,13811.1L91819.5,13819C91819.5,13822.9 91816.4,13826 91812.6,13826L91804.7,13826C91800.8,13826 91797.7,13822.9 91797.7,13819L91797.7,13811.1C91797.7,13807.3 91800.8,13804.2 91804.7,13804.2L91812.6,13804.2C91816.4,13804.2 91819.5,13807.3 91819.5,13811.1Z" style="fill:currentColor;fill-opacity:0.4;"></path>
    </g>
    <g transform="matrix(3.0795e-17,0.502921,-0.502921,3.0795e-17,6991.32,-46129)">
        <path d="M91819.5,13811.1L91819.5,13819C91819.5,13822.9 91816.4,13826 91812.6,13826L91804.7,13826C91800.8,13826 91797.7,13822.9 91797.7,13819L91797.7,13811.1C91797.7,13807.3 91800.8,13804.2 91804.7,13804.2L91812.6,13804.2C91816.4,13804.2 91819.5,13807.3 91819.5,13811.1Z" style="fill:currentColor;fill-opacity:0.4;"></path>
    </g>
    <g transform="matrix(3.0795e-17,0.502921,-0.502921,3.0795e-17,6991.32,-46115.9)">
        <path d="M91819.5,13811.1L91819.5,13819C91819.5,13822.9 91816.4,13826 91812.6,13826L91804.7,13826C91800.8,13826 91797.7,13822.9 91797.7,13819L91797.7,13811.1C91797.7,13807.3 91800.8,13804.2 91804.7,13804.2L91812.6,13804.2C91816.4,13804.2 91819.5,13807.3 91819.5,13811.1Z" style="fill:currentColor;fill-opacity:0.4;"></path>
    </g>
    <g transform="matrix(3.0795e-17,0.502921,-0.502921,3.0795e-17,6991.32,-46089.6)">
        <path d="M91819.5,13811.1L91819.5,13819C91819.5,13822.9 91816.4,13826 91812.6,13826L91804.7,13826C91800.8,13826 91797.7,13822.9 91797.7,13819L91797.7,13811.1C91797.7,13807.3 91800.8,13804.2 91804.7,13804.2L91812.6,13804.2C91816.4,13804.2 91819.5,13807.3 91819.5,13811.1Z" style="fill:currentColor;fill-opacity:0.4;"></path>
    </g>
    <g transform="matrix(3.0795e-17,0.502921,-0.502921,3.0795e-17,7004.46,-46155.3)">
        <path d="M91819.5,13811.1L91819.5,13819C91819.5,13822.9 91816.4,13826 91812.6,13826L91804.7,13826C91800.8,13826 91797.7,13822.9 91797.7,13819L91797.7,13811.1C91797.7,13807.3 91800.8,13804.2 91804.7,13804.2L91812.6,13804.2C91816.4,13804.2 91819.5,13807.3 91819.5,13811.1Z" style="fill:currentColor;fill-opacity:0.4;"></path>
    </g>
    <g transform="matrix(3.0795e-17,0.502921,-0.502921,3.0795e-17,7004.46,-46142.2)">
        <path d="M91819.5,13811.1L91819.5,13819C91819.5,13822.9 91816.4,13826 91812.6,13826L91804.7,13826C91800.8,13826 91797.7,13822.9 91797.7,13819L91797.7,13811.1C91797.7,13807.3 91800.8,13804.2 91804.7,13804.2L91812.6,13804.2C91816.4,13804.2 91819.5,13807.3 91819.5,13811.1Z" style="fill:currentColor;fill-opacity:0.4;"></path>
    </g>
    <g transform="matrix(3.0795e-17,0.502921,-0.502921,3.0795e-17,7004.46,-46102.7)">
        <path d="M91819.5,13811.1L91819.5,13819C91819.5,13822.9 91816.4,13826 91812.6,13826L91804.7,13826C91800.8,13826 91797.7,13822.9 91797.7,13819L91797.7,13811.1C91797.7,13807.3 91800.8,13804.2 91804.7,13804.2L91812.6,13804.2C91816.4,13804.2 91819.5,13807.3 91819.5,13811.1Z" style="fill:currentColor;fill-opacity:0.4;"></path>
    </g>
    <g transform="matrix(3.0795e-17,0.502921,-0.502921,3.0795e-17,7004.46,-46089.6)">
        <path d="M91819.5,13811.1L91819.5,13819C91819.5,13822.9 91816.4,13826 91812.6,13826L91804.7,13826C91800.8,13826 91797.7,13822.9 91797.7,13819L91797.7,13811.1C91797.7,13807.3 91800.8,13804.2 91804.7,13804.2L91812.6,13804.2C91816.4,13804.2 91819.5,13807.3 91819.5,13811.1Z" style="fill:currentColor;fill-opacity:0.4;"></path>
    </g>
    <g transform="matrix(3.0795e-17,0.502921,-0.502921,3.0795e-17,7017.61,-46155.3)">
        <path d="M91819.5,13811.1L91819.5,13819C91819.5,13822.9 91816.4,13826 91812.6,13826L91804.7,13826C91800.8,13826 91797.7,13822.9 91797.7,13819L91797.7,13811.1C91797.7,13807.3 91800.8,13804.2 91804.7,13804.2L91812.6,13804.2C91816.4,13804.2 91819.5,13807.3 91819.5,13811.1Z" style="fill:currentColor;fill-opacity:0.4;"></path>
    </g>
    <g transform="matrix(3.0795e-17,0.502921,-0.502921,3.0795e-17,7017.61,-46129)">
        <path d="M91819.5,13811.1L91819.5,13819C91819.5,13822.9 91816.4,13826 91812.6,13826L91804.7,13826C91800.8,13826 91797.7,13822.9 91797.7,13819L91797.7,13811.1C91797.7,13807.3 91800.8,13804.2 91804.7,13804.2L91812.6,13804.2C91816.4,13804.2 91819.5,13807.3 91819.5,13811.1Z" style="fill:currentColor;fill-opacity:0.4;"></path>
    </g>
    <g transform="matrix(3.0795e-17,0.502921,-0.502921,3.0795e-17,7017.61,-46115.9)">
        <path d="M91819.5,13811.1L91819.5,13819C91819.5,13822.9 91816.4,13826 91812.6,13826L91804.7,13826C91800.8,13826 91797.7,13822.9 91797.7,13819L91797.7,13811.1C91797.7,13807.3 91800.8,13804.2 91804.7,13804.2L91812.6,13804.2C91816.4,13804.2 91819.5,13807.3 91819.5,13811.1Z" style="fill:currentColor;fill-opacity:0.4;"></path>
    </g>
    <g transform="matrix(3.0795e-17,0.502921,-0.502921,3.0795e-17,7017.61,-46102.7)">
        <path d="M91819.5,13811.1L91819.5,13819C91819.5,13822.9 91816.4,13826 91812.6,13826L91804.7,13826C91800.8,13826 91797.7,13822.9 91797.7,13819L91797.7,13811.1C91797.7,13807.3 91800.8,13804.2 91804.7,13804.2L91812.6,13804.2C91816.4,13804.2 91819.5,13807.3 91819.5,13811.1Z" style="fill:currentColor;fill-opacity:0.4;"></path>
    </g>
    <g transform="matrix(3.0795e-17,0.502921,-0.502921,3.0795e-17,7017.61,-46089.6)">
        <path d="M91819.5,13811.1L91819.5,13819C91819.5,13822.9 91816.4,13826 91812.6,13826L91804.7,13826C91800.8,13826 91797.7,13822.9 91797.7,13819L91797.7,13811.1C91797.7,13807.3 91800.8,13804.2 91804.7,13804.2L91812.6,13804.2C91816.4,13804.2 91819.5,13807.3 91819.5,13811.1Z" style="fill:currentColor;fill-opacity:0.4;"></path>
    </g>
    <g transform="matrix(3.0795e-17,0.502921,-0.502921,3.0795e-17,7030.76,-46155.3)">
        <path d="M91819.5,13811.1L91819.5,13819C91819.5,13822.9 91816.4,13826 91812.6,13826L91804.7,13826C91800.8,13826 91797.7,13822.9 91797.7,13819L91797.7,13811.1C91797.7,13807.3 91800.8,13804.2 91804.7,13804.2L91812.6,13804.2C91816.4,13804.2 91819.5,13807.3 91819.5,13811.1Z" style="fill:currentColor;fill-opacity:0.4;"></path>
    </g>
    <g transform="matrix(3.0795e-17,0.502921,-0.502921,3.0795e-17,7030.76,-46142.2)">
        <path d="M91819.5,13811.1L91819.5,13819C91819.5,13822.9 91816.4,13826 91812.6,13826L91804.7,13826C91800.8,13826 91797.7,13822.9 91797.7,13819L91797.7,13811.1C91797.7,13807.3 91800.8,13804.2 91804.7,13804.2L91812.6,13804.2C91816.4,13804.2 91819.5,13807.3 91819.5,13811.1Z" style="fill:currentColor;fill-opacity:0.4;"></path>
    </g>
    <g transform="matrix(3.0795e-17,0.502921,-0.502921,3.0795e-17,7030.76,-46129)">
        <path d="M91819.5,13811.1L91819.5,13819C91819.5,13822.9 91816.4,13826 91812.6,13826L91804.7,13826C91800.8,13826 91797.7,13822.9 91797.7,13819L91797.7,13811.1C91797.7,13807.3 91800.8,13804.2 91804.7,13804.2L91812.6,13804.2C91816.4,13804.2 91819.5,13807.3 91819.5,13811.1Z" style="fill:currentColor;fill-opacity:0.4;"></path>
    </g>
    <g transform="matrix(3.0795e-17,0.502921,-0.502921,3.0795e-17,7030.76,-46115.9)">
        <path d="M91819.5,13811.1L91819.5,13819C91819.5,13822.9 91816.4,13826 91812.6,13826L91804.7,13826C91800.8,13826 91797.7,13822.9 91797.7,13819L91797.7,13811.1C91797.7,13807.3 91800.8,13804.2 91804.7,13804.2L91812.6,13804.2C91816.4,13804.2 91819.5,13807.3 91819.5,13811.1Z" style="fill:currentColor;fill-opacity:0.4;"></path>
    </g>
    <g transform="matrix(3.0795e-17,0.502921,-0.502921,3.0795e-17,7030.76,-46102.7)">
        <path d="M91819.5,13811.1L91819.5,13819C91819.5,13822.9 91816.4,13826 91812.6,13826L91804.7,13826C91800.8,13826 91797.7,13822.9 91797.7,13819L91797.7,13811.1C91797.7,13807.3 91800.8,13804.2 91804.7,13804.2L91812.6,13804.2C91816.4,13804.2 91819.5,13807.3 91819.5,13811.1Z" style="fill:currentColor;fill-opacity:0.4;"></path>
    </g>
    <g transform="matrix(3.0795e-17,0.502921,-0.502921,3.0795e-17,7030.76,-46089.6)">
        <path d="M91819.5,13811.1L91819.5,13819C91819.5,13822.9 91816.4,13826 91812.6,13826L91804.7,13826C91800.8,13826 91797.7,13822.9 91797.7,13819L91797.7,13811.1C91797.7,13807.3 91800.8,13804.2 91804.7,13804.2L91812.6,13804.2C91816.4,13804.2 91819.5,13807.3 91819.5,13811.1Z" style="fill:currentColor;fill-opacity:0.4;"></path>
    </g>
    <g transform="matrix(3.0795e-17,0.502921,-0.502921,3.0795e-17,7043.9,-46142.2)">
        <path d="M91819.5,13811.1L91819.5,13819C91819.5,13822.9 91816.4,13826 91812.6,13826L91804.7,13826C91800.8,13826 91797.7,13822.9 91797.7,13819L91797.7,13811.1C91797.7,13807.3 91800.8,13804.2 91804.7,13804.2L91812.6,13804.2C91816.4,13804.2 91819.5,13807.3 91819.5,13811.1Z" style="fill:currentColor;fill-opacity:0.4;"></path>
    </g>
    <g transform="matrix(3.0795e-17,0.502921,-0.502921,3.0795e-17,7043.9,-46129)">
        <path d="M91819.5,13811.1L91819.5,13819C91819.5,13822.9 91816.4,13826 91812.6,13826L91804.7,13826C91800.8,13826 91797.7,13822.9 91797.7,13819L91797.7,13811.1C91797.7,13807.3 91800.8,13804.2 91804.7,13804.2L91812.6,13804.2C91816.4,13804.2 91819.5,13807.3 91819.5,13811.1Z" style="fill:currentColor;fill-opacity:0.4;"></path>
    </g>
    <g transform="matrix(3.0795e-17,0.502921,-0.502921,3.0795e-17,7043.9,-46115.9)">
        <path d="M91819.5,13811.1L91819.5,13819C91819.5,13822.9 91816.4,13826 91812.6,13826L91804.7,13826C91800.8,13826 91797.7,13822.9 91797.7,13819L91797.7,13811.1C91797.7,13807.3 91800.8,13804.2 91804.7,13804.2L91812.6,13804.2C91816.4,13804.2 91819.5,13807.3 91819.5,13811.1Z" style="fill:currentColor;fill-opacity:0.4;"></path>
    </g>
    <g transform="matrix(3.0795e-17,0.502921,-0.502921,3.0795e-17,7043.9,-46102.7)">
        <path d="M91819.5,13811.1L91819.5,13819C91819.5,13822.9 91816.4,13826 91812.6,13826L91804.7,13826C91800.8,13826 91797.7,13822.9 91797.7,13819L91797.7,13811.1C91797.7,13807.3 91800.8,13804.2 91804.7,13804.2L91812.6,13804.2C91816.4,13804.2 91819.5,13807.3 91819.5,13811.1Z" style="fill:currentColor;fill-opacity:0.4;"></path>
    </g>
    <g transform="matrix(3.0795e-17,0.502921,-0.502921,3.0795e-17,6951.87,-46142.2)">
        <path d="M91819.5,13811.1L91819.5,13819C91819.5,13822.9 91816.4,13826 91812.6,13826L91804.7,13826C91800.8,13826 91797.7,13822.9 91797.7,13819L91797.7,13811.1C91797.7,13807.3 91800.8,13804.2 91804.7,13804.2L91812.6,13804.2C91816.4,13804.2 91819.5,13807.3 91819.5,13811.1Z" style="fill:currentColor;fill-opacity:0.4;"></path>
    </g>
    <g transform="matrix(3.0795e-17,0.502921,-0.502921,3.0795e-17,6951.87,-46129)">
        <path d="M91819.5,13811.1L91819.5,13819C91819.5,13822.9 91816.4,13826 91812.6,13826L91804.7,13826C91800.8,13826 91797.7,13822.9 91797.7,13819L91797.7,13811.1C91797.7,13807.3 91800.8,13804.2 91804.7,13804.2L91812.6,13804.2C91816.4,13804.2 91819.5,13807.3 91819.5,13811.1Z" style="fill:currentColor;fill-opacity:0.4;"></path>
    </g>
    <g transform="matrix(3.0795e-17,0.502921,-0.502921,3.0795e-17,6951.87,-46115.9)">
        <path d="M91819.5,13811.1L91819.5,13819C91819.5,13822.9 91816.4,13826 91812.6,13826L91804.7,13826C91800.8,13826 91797.7,13822.9 91797.7,13819L91797.7,13811.1C91797.7,13807.3 91800.8,13804.2 91804.7,13804.2L91812.6,13804.2C91816.4,13804.2 91819.5,13807.3 91819.5,13811.1Z" style="fill:currentColor;fill-opacity:0.4;"></path>
    </g>
    <g transform="matrix(3.0795e-17,0.502921,-0.502921,3.0795e-17,6951.87,-46102.7)">
        <path d="M91819.5,13811.1L91819.5,13819C91819.5,13822.9 91816.4,13826 91812.6,13826L91804.7,13826C91800.8,13826 91797.7,13822.9 91797.7,13819L91797.7,13811.1C91797.7,13807.3 91800.8,13804.2 91804.7,13804.2L91812.6,13804.2C91816.4,13804.2 91819.5,13807.3 91819.5,13811.1Z" style="fill:currentColor;fill-opacity:0.4;"></path>
    </g>
    <g transform="matrix(3.0795e-17,0.502921,-0.502921,3.0795e-17,6978.17,-46076.4)">
        <path d="M91819.5,13811.1L91819.5,13819C91819.5,13822.9 91816.4,13826 91812.6,13826L91804.7,13826C91800.8,13826 91797.7,13822.9 91797.7,13819L91797.7,13811.1C91797.7,13807.3 91800.8,13804.2 91804.7,13804.2L91812.6,13804.2C91816.4,13804.2 91819.5,13807.3 91819.5,13811.1Z" style="fill:currentColor;fill-opacity:0.4;"></path>
    </g>
    <g transform="matrix(3.0795e-17,0.502921,-0.502921,3.0795e-17,6991.32,-46076.4)">
        <path d="M91819.5,13811.1L91819.5,13819C91819.5,13822.9 91816.4,13826 91812.6,13826L91804.7,13826C91800.8,13826 91797.7,13822.9 91797.7,13819L91797.7,13811.1C91797.7,13807.3 91800.8,13804.2 91804.7,13804.2L91812.6,13804.2C91816.4,13804.2 91819.5,13807.3 91819.5,13811.1Z" style="fill:currentColor;fill-opacity:0.4;"></path>
    </g>
    <g transform="matrix(3.0795e-17,0.502921,-0.502921,3.0795e-17,7004.46,-46076.4)">
        <path d="M91819.5,13811.1L91819.5,13819C91819.5,13822.9 91816.4,13826 91812.6,13826L91804.7,13826C91800.8,13826 91797.7,13822.9 91797.7,13819L91797.7,13811.1C91797.7,13807.3 91800.8,13804.2 91804.7,13804.2L91812.6,13804.2C91816.4,13804.2 91819.5,13807.3 91819.5,13811.1Z" style="fill:currentColor;fill-opacity:0.4;"></path>
    </g>
    <g transform="matrix(3.0795e-17,0.502921,-0.502921,3.0795e-17,7017.61,-46076.4)">
        <path d="M91819.5,13811.1L91819.5,13819C91819.5,13822.9 91816.4,13826 91812.6,13826L91804.7,13826C91800.8,13826 91797.7,13822.9 91797.7,13819L91797.7,13811.1C91797.7,13807.3 91800.8,13804.2 91804.7,13804.2L91812.6,13804.2C91816.4,13804.2 91819.5,13807.3 91819.5,13811.1Z" style="fill:currentColor;fill-opacity:0.4;"></path>
    </g>
</svg>